<svg id="Layer_1" enable-background="new 0 0 512.001 512.001" height="512" viewBox="0 0 512.001 512.001" width="512" xmlns="http://www.w3.org/2000/svg"><g><g clip-rule="evenodd" fill-rule="evenodd"><path d="m256.001 410c32.193 0 67.071-20.442 95.916-55.072 36.173-43.428 62.858-109.169 62.858-184.89 0-86.401-71.749-160.369-158.774-160.037-87.026-.332-158.774 73.636-158.774 160.037 0 75.721 26.685 141.462 62.858 184.89 28.844 34.63 63.723 55.072 95.916 55.072zm26.625-136.351c-14.709-14.71-8.483-44.785 13.907-67.175s52.465-28.616 67.175-13.906 8.483 44.785-13.906 67.175c-22.391 22.389-52.466 28.615-67.176 13.906zm-67.157-67.175c22.39 22.39 28.616 52.466 13.906 67.175-14.71 14.71-44.785 8.483-67.175-13.906-22.39-22.39-28.616-52.466-13.907-67.175 14.71-14.71 44.785-8.484 67.176 13.906z" fill="#88df8e"/><ellipse cx="188.834" cy="233.108" fill="#6d91ac" rx="37.667" ry="57.333" transform="matrix(.707 -.707 .707 .707 -109.524 201.8)"/><path d="m296.533 206.474c-22.39 22.39-28.616 52.466-13.907 67.175 14.71 14.71 44.785 8.483 67.175-13.907s28.616-52.465 13.906-67.175c-14.709-14.709-44.784-8.483-67.174 13.907z" fill="#6d91ac"/><path d="m351.917 354.928c-28.845 34.63-63.723 55.072-95.916 55.072s-67.071-20.442-95.916-55.072c-.585 3.72-.893 7.515-.893 11.374 0 11.738 2.795 22.911 7.84 33.05 14.824 29.79 49.08 50.65 88.97 50.65s74.146-20.859 88.97-50.65c5.045-10.139 7.84-21.313 7.84-33.05-.002-3.859-.31-7.655-.895-11.374z" fill="#b278d3"/><path d="m344.971 399.351c-14.824 29.79-49.08 50.65-88.97 50.65s-74.146-20.859-88.97-50.65c-17.348 27.586-28.599 63.27-30.68 102.65h239.3c-2.081-39.379-13.332-75.064-30.68-102.65z" fill="#d1aee5"/></g><g><path d="m208.073 291.684c11 0 20.977-3.567 28.374-10.964 18.9-18.9 12.792-54.619-13.907-81.318-26.7-26.698-62.417-32.806-81.317-13.907-18.9 18.9-12.791 54.619 13.907 81.317 16.249 16.251 35.836 24.872 52.943 24.872zm-52.708-92.046c10.604-10.604 34.89-4.235 53.032 13.907 18.143 18.143 24.511 42.429 13.907 53.033-10.603 10.605-34.89 4.237-53.032-13.907-18.143-18.142-24.512-42.428-13.907-53.033z"/><path d="m330.974 175.815c-14.577 3.018-29.319 11.395-41.512 23.587-26.698 26.698-32.807 62.417-13.907 81.318 7.398 7.397 17.371 10.963 28.373 10.963 17.105 0 36.696-8.623 52.944-24.87 26.698-26.698 32.807-62.417 13.907-81.317-9.574-9.574-23.712-13.012-39.805-9.681zm11.756 76.856c-18.143 18.143-42.429 24.51-53.033 13.907-10.604-10.605-4.236-34.891 13.907-53.034 9.328-9.328 20.781-15.941 31.423-18.144 2.003-.415 4.643-.804 7.491-.804 4.793 0 10.179 1.103 14.118 5.042 10.605 10.605 4.237 34.891-13.906 53.033z"/><path d="m228.365 320.215c0 5.523 4.477 10 10 10h35.271c5.523 0 10-4.477 10-10s-4.477-10-10-10h-35.271c-5.523 0-10 4.477-10 10z"/><path d="m356.238 398.671c4.249-10.093 6.572-20.997 6.572-32.369 0-2.783-.158-5.589-.442-8.387 2.856-3.557 5.654-7.235 8.375-11.054 34.843-48.9 54.031-111.697 54.031-176.822 0-44.57-18.511-88.572-50.786-120.725-31.937-31.818-73.604-49.314-117.323-49.314-.408 0-.821 0-1.232 0-28.035 0-55.925 7.397-80.688 21.407-4.807 2.72-6.499 8.821-3.78 13.627 2.719 4.807 8.82 6.498 13.627 3.78 21.765-12.313 46.248-18.814 70.914-18.814.177 0 .355 0 .533.001 38.664-.14 75.541 15.294 103.834 43.481 28.536 28.427 44.901 67.265 44.901 106.556 0 61-17.871 119.675-50.319 165.216-28.887 40.542-65.692 64.746-98.454 64.746s-69.568-24.204-98.455-64.746c-32.449-45.541-50.319-104.215-50.319-165.216 0-24.767 6.433-49.535 18.604-71.628 2.665-4.837.904-10.919-3.934-13.584-4.837-2.665-10.919-.904-13.584 3.934-13.794 25.041-21.086 53.147-21.086 81.279 0 65.125 19.189 127.922 54.031 176.822 2.721 3.819 5.519 7.497 8.375 11.054-.284 2.797-.442 5.604-.442 8.387 0 11.372 2.324 22.276 6.572 32.37-17.23 29.265-27.384 64.672-29.399 102.803-.145 2.74.843 5.419 2.731 7.41s4.512 3.118 7.255 3.118h239.3c2.744 0 5.367-1.127 7.255-3.118s2.875-4.669 2.731-7.41c-2.014-38.132-12.167-73.539-29.398-102.804zm-100.237 21.329c28.189 0 58.279-14.128 85.092-39.083-8.009 33.661-43.118 59.084-85.092 59.084-41.975 0-77.084-25.423-85.093-59.084 26.813 24.955 56.903 39.083 85.093 39.083zm69.648 72.001v-14.503c0-5.523-4.477-10-10-10s-10 4.477-10 10v14.503h-99.296v-14.503c0-5.523-4.477-10-10-10s-10 4.477-10 10v14.503h-39.219c2.602-26.394 9.671-51.641 20.441-73.2 19.229 24.844 51.69 41.199 88.426 41.199s69.198-16.355 88.426-41.199c10.77 21.558 17.839 46.808 20.441 73.2z"/><path d="m143.971 67.503c5.523 0 10-4.477 10-10s-4.477-10-10-10h-.008c-5.523 0-9.996 4.477-9.996 10s4.481 10 10.004 10z"/></g></g></svg>