<svg id="Capa_1" enable-background="new 0 0 512 512" height="512" viewBox="0 0 512 512" width="512" xmlns="http://www.w3.org/2000/svg"><g><g><path d="m314.796 504.524h-164.884v-140.482c0-3.541 2.871-6.412 6.412-6.412h152.06c3.541 0 6.412 2.871 6.412 6.412z" fill="#d9b1ee"/></g><g><path d="m314.798 364.046v140.483h-19.936v-140.483c0-3.549-2.871-6.42-6.419-6.42h19.936c3.549 0 6.419 2.871 6.419 6.42z" fill="#cb97e7"/></g><g><path d="m319.017 98.35c-13.326 0-24.13 10.803-24.13 24.13v-64.393c0-13.326-10.803-24.13-24.13-24.13-13.326 0-24.13 10.803-24.13 24.13v-26.481c0-13.326-10.803-24.13-24.13-24.13-13.326 0-24.13 10.803-24.13 24.13v29.648c0-13.326-10.803-24.13-24.13-24.13-13.326 0-24.129 10.803-24.129 24.129v159.524l-11.869-28.766c-5.297-12.838-19.925-19.038-32.834-13.918-13.089 5.192-19.454 20.044-14.187 33.103l16.658 41.294 5.239 12.085c8.952 20.651 24.114 37.33 42.739 48.25 8.003 4.692 12.806 13.384 12.806 22.661v22.143h126.226v-21.959c0-8.962 4.6-17.22 12.056-22.192 21.822-14.55 36.203-39.374 36.203-67.57v-2.114-121.314c.002-13.326-10.801-24.13-24.128-24.13z" fill="#fed2a4"/></g><g><path d="m294.892 58.09v139.286h-3.082c-9.309 0-16.855-7.546-16.855-16.855v-122.431c0-6.659-2.701-12.7-7.068-17.066-2.033-2.034-4.436-3.708-7.097-4.914 3.04-1.386 6.419-2.153 9.968-2.153 6.659 0 12.7 2.701 17.065 7.067 4.368 4.367 7.069 10.408 7.069 17.066z" fill="#ffbd86"/></g><g><path d="m246.626 31.605v165.772h-3.072c-9.309 0-16.855-7.546-16.855-16.855v-148.917c0-6.669-2.701-12.7-7.067-17.066-2.034-2.034-4.436-3.708-7.097-4.914 3.04-1.386 6.41-2.153 9.968-2.153 6.669 0 12.69 2.701 17.056 7.067 4.365 4.366 7.067 10.397 7.067 17.066z" fill="#ffbd86"/></g><g><path d="m198.369 61.806v135.571h-3.082c-9.309 0-16.855-7.546-16.855-16.855v-119.272c0-9.769-5.801-18.182-14.155-21.97 3.085-1.41 6.52-2.18 10.149-2.152 13.345.103 23.943 11.333 23.943 24.678z" fill="#ffbd86"/></g><g><path d="m343.148 122.475v123.437c0 28.19-14.384 53.021-36.205 67.565-7.456 4.974-12.052 13.228-12.052 22.189v21.96h-19.936v-32.058c0-8.961 4.595-17.225 12.052-22.189 21.82-14.554 36.205-39.375 36.205-67.575v-113.329c0-9.759-5.811-18.172-14.155-21.97 3.03-1.386 6.4-2.153 9.958-2.153 13.328 0 24.133 10.806 24.133 24.123z" fill="#ffbd86"/></g><g><path d="m319.017 90.875c-6.108 0-11.814 1.747-16.654 4.76v-37.548c0-17.428-14.178-31.606-31.606-31.606-6.112 0-11.821 1.749-16.663 4.766-.192-17.262-14.288-31.247-31.595-31.247-17.427 0-31.605 14.178-31.605 31.605v2.804c-4.84-3.013-10.545-4.76-16.654-4.76-17.427 0-31.605 14.178-31.605 31.605v123.016c-8.253-13.162-25.101-19.029-39.984-13.126-8.195 3.251-14.62 9.504-18.092 17.607-3.472 8.102-3.568 17.067-.271 25.242l16.658 41.294c.024.059.049.118.074.176l5.239 12.086c9.454 21.809 25.298 39.696 45.817 51.725 5.62 3.295 9.111 9.508 9.111 16.212v14.666h-4.862c-7.658 0-13.888 6.23-13.888 13.888v47.611c0 4.129 3.347 7.476 7.476 7.476s7.476-3.347 7.476-7.476v-46.547h149.931v131.942h-149.932v-50.839c0-4.129-3.347-7.476-7.476-7.476s-7.476 3.347-7.476 7.476v58.315c0 4.129 3.347 7.476 7.476 7.476h164.884c4.129 0 7.476-3.347 7.476-7.476v-140.48c0-7.658-6.23-13.888-13.888-13.888h-6.02v-14.482c0-6.358 3.263-12.328 8.728-15.972 24.754-16.505 39.532-44.091 39.532-73.79v-42.715c0-4.129-3.347-7.476-7.476-7.476s-7.476 3.347-7.476 7.476v42.715c0 24.69-12.289 47.624-32.874 61.349-9.633 6.423-15.385 17.044-15.385 28.412v14.482h-111.275v-14.666c0-11.988-6.323-23.143-16.501-29.11-17.763-10.414-31.478-25.897-39.661-44.773l-5.2-11.997-16.622-41.207c-1.797-4.457-1.745-9.342.148-13.759 1.892-4.417 5.395-7.826 9.862-9.597 9.058-3.594 19.45.811 23.167 9.82l11.869 28.766c1.361 3.299 4.867 5.179 8.364 4.482 3.501-.693 6.023-3.764 6.023-7.333v-159.525c0-9.183 7.471-16.653 16.654-16.653s16.654 7.47 16.654 16.653v129.747c0 4.129 3.347 7.476 7.476 7.476s7.476-3.347 7.476-7.476v-159.396c0-9.183 7.47-16.653 16.653-16.653s16.654 7.47 16.654 16.653v159.396c0 4.129 3.347 7.476 7.476 7.476s7.476-3.347 7.476-7.476v-132.914c0-9.183 7.471-16.654 16.654-16.654s16.653 7.471 16.653 16.654v132.914c0 4.129 3.347 7.476 7.476 7.476s7.476-3.347 7.476-7.476v-68.521c0-9.183 7.471-16.653 16.654-16.653s16.654 7.47 16.654 16.653v45.515c0 4.129 3.347 7.476 7.476 7.476s7.476-3.347 7.476-7.476v-45.515c-.002-17.427-14.18-31.605-31.608-31.605z"/><path d="m386.233 105.003c-4.129 0-7.476 3.347-7.476 7.476v112.874c0 4.129 3.347 7.476 7.476 7.476s7.476-3.347 7.476-7.476v-112.873c0-4.13-3.347-7.477-7.476-7.477z"/><path d="m422.642 105.003c-4.129 0-7.476 3.347-7.476 7.476v32.125c0 4.13 3.347 7.476 7.476 7.476s7.476-3.347 7.476-7.476v-32.124c.001-4.13-3.347-7.477-7.476-7.477z"/></g></g></svg>