<?xml version="1.0" encoding="iso-8859-1"?>
<!-- Generator: Adobe Illustrator 19.0.0, SVG Export Plug-In . SVG Version: 6.00 Build 0)  -->
<svg xmlns="http://www.w3.org/2000/svg" xmlns:xlink="http://www.w3.org/1999/xlink" version="1.1" id="Capa_1" x="0px" y="0px" viewBox="0 0 512 512" style="enable-background:new 0 0 512 512;" xml:space="preserve" width="512" height="512">
<g>
	<path d="M422,256c0-91.533-74.467-166-166-166S90,164.467,90,256s74.467,166,166,166S422,347.533,422,256z M391.964,241v30H361.94   v-30H391.964z M341.534,149.253l21.213,21.213l-21.229,21.229l-21.213-21.213L341.534,149.253z M341.518,320.305l21.229,21.229   l-21.213,21.213l-21.229-21.229L341.518,320.305z M241,120.036h30v30.023h-30V120.036z M241,180.084h30V241h30.892v30H241V180.084z    M120.036,271v-30h30.023v30H120.036z M170.466,362.747l-21.213-21.213l21.229-21.229l21.213,21.213L170.466,362.747z    M170.482,191.695l-21.229-21.229l21.213-21.213l21.229,21.229L170.482,191.695z M241,361.94h30v30.023h-30V361.94z"/>
	<path d="M437.02,74.98C388.667,26.629,324.38,0,256,0S123.333,26.629,74.98,74.98C26.629,123.333,0,187.62,0,256v256h512V256   C512,187.62,485.371,123.333,437.02,74.98z M60,256c0-108.075,87.925-196,196-196s196,87.925,196,196s-87.925,196-196,196   S60,364.075,60,256z"/>
</g>















</svg>
