<svg id="Capa_1" enable-background="new 0 0 512 512" height="512" viewBox="0 0 512 512" width="512" xmlns="http://www.w3.org/2000/svg"><g><path d="m50.784 322.529c-21.333 12.317-28.894 39.954-16.472 61.471 12.519 21.684 40.287 28.702 61.471 16.471 21.18-12.229 28.576-40.505 16.471-61.471-12.406-21.488-39.981-28.878-61.47-16.471zm37.5 64.951c-14.326 8.27-32.709 3.344-40.981-10.98-8.203-14.205-3.163-32.814 10.981-40.98 14.135-8.161 32.604-3.528 40.981 10.98 8.116 14.057 3.154 32.821-10.981 40.98zm7.5-275.951c-13.691-7.906-30.161-8.106-44.058-.535-3.638 1.98-4.98 6.536-2.999 10.174 1.981 3.637 6.536 4.981 10.174 2.998 9.27-5.048 20.255-4.917 29.384.354 14.067 8.122 19.149 26.834 10.98 40.98-8.271 14.325-26.655 19.252-40.981 10.98-10.792-6.23-16.547-18.214-14.664-30.528.626-4.094-2.185-7.921-6.279-8.548-4.096-.623-7.921 2.186-8.548 6.28-2.826 18.47 5.806 36.442 21.991 45.786 21.221 12.252 48.933 5.244 61.471-16.471 12.575-21.778 4.677-49.257-16.471-61.47zm365.462 77.942c21.163-12.219 28.575-40.505 16.471-61.471-12.407-21.489-39.981-28.878-61.471-16.471-21.349 12.326-28.891 39.961-16.471 61.471 12.52 21.683 40.287 28.702 61.471 16.471zm-37.5-64.951c14.136-8.162 32.608-3.523 40.981 10.98 8.116 14.058 3.153 32.822-10.981 40.98-14.326 8.27-32.71 3.344-40.981-10.98-8.202-14.206-3.164-32.814 10.981-40.98zm-175.231-9.241v47.993c0 4.143 3.358 7.5 7.5 7.5s7.5-3.357 7.5-7.5v-47.993c0-4.143-3.358-7.5-7.5-7.5s-7.5 3.358-7.5 7.5zm118.765 85.143 15.436-8.912c3.587-2.071 4.816-6.658 2.745-10.245-2.072-3.588-6.658-4.815-10.245-2.745l-15.436 8.912c-3.587 2.071-4.816 6.658-2.745 10.245 2.093 3.624 6.712 4.788 10.245 2.745zm-111.265-110.422c24.813 0 45-20.187 45-45s-20.187-45-45-45-45 20.187-45 45 20.187 45 45 45zm0-75c16.542 0 30 13.458 30 30s-13.458 30-30 30-30-13.458-30-30 13.458-30 30-30zm-110.445 296.105-17.58 10.149c-3.587 2.071-4.816 6.658-2.745 10.245 2.093 3.625 6.713 4.789 10.245 2.745l17.58-10.149c3.587-2.071 4.816-6.658 2.745-10.245s-6.657-4.814-10.245-2.745zm173.125-120.285h-125.36c-14.812 0-26.861 12.05-26.861 26.861v76.637c0 14.812 12.05 26.861 26.861 26.861h55.566c4.142 0 7.5-3.357 7.5-7.5s-3.358-7.5-7.5-7.5h-55.566c-6.541 0-11.861-5.321-11.861-11.861v-76.637c0-6.54 5.321-11.861 11.861-11.861h125.36c6.541 0 11.861 5.321 11.861 11.861v76.637c0 6.54-5.321 11.861-11.861 11.861h-34.794c-4.142 0-7.5 3.357-7.5 7.5s3.358 7.5 7.5 7.5h34.794c14.812 0 26.861-12.05 26.861-26.861v-76.637c0-14.811-12.049-26.861-26.861-26.861zm-39.495 74.66c6.492-4.426 6.46-14.56 0-18.961l-33.508-23.191c-7.481-5.274-17.883.538-17.807 9.48v46.383c-.091 8.923 10.409 14.702 17.807 9.48zm-36.316 6.893v-32.746l23.656 16.373zm218.362 50.156c-21.488-12.408-49.065-5.017-61.471 16.471-12.199 21.128-4.884 49.14 16.471 61.471 21.24 12.265 48.929 5.252 61.471-16.471 12.579-21.785 4.664-49.267-16.471-61.471zm3.481 53.971c-8.271 14.325-26.655 19.253-40.981 10.98-14.196-8.197-19.136-26.856-10.981-40.98 8.361-14.48 26.853-19.137 40.981-10.98 14.072 8.124 19.148 26.835 10.981 40.98zm-80.688-55.245-19.304-11.146c-3.587-2.07-8.174-.843-10.245 2.745-2.071 3.587-.842 8.174 2.745 10.245l19.304 11.146c3.526 2.04 8.152.879 10.245-2.745 2.072-3.587.843-8.174-2.745-10.245zm-230.422-133.034-18.126-10.466c-3.587-2.07-8.175-.843-10.245 2.745-2.071 3.587-.842 8.174 2.745 10.245l18.126 10.466c3.526 2.04 8.152.879 10.245-2.745 2.071-3.587.842-8.174-2.745-10.245zm94.898 160.507v47.26c0 4.143 3.358 7.5 7.5 7.5s7.5-3.357 7.5-7.5v-47.26c0-4.143-3.358-7.5-7.5-7.5s-7.5 3.357-7.5 7.5zm7.5 73.272c-24.813 0-45 20.187-45 45s20.187 45 45 45 45-20.187 45-45-20.187-45-45-45zm0 75c-16.542 0-30-13.458-30-30s13.458-30 30-30 30 13.458 30 30-13.458 30-30 30z"/></g></svg>